<?xml version="1.0" encoding="utf-8"?>
<!-- Generator: Adobe Illustrator 26.1.0, SVG Export Plug-In . SVG Version: 6.00 Build 0)  -->
<svg version="1.1" id="Layer_1" xmlns="http://www.w3.org/2000/svg" xmlns:xlink="http://www.w3.org/1999/xlink" x="0px" y="0px"
	 viewBox="0 0 1000 485" style="enable-background:new 0 0 1000 485;" xml:space="preserve">
<style type="text/css">
	.st0{fill:#83CF00;}
	.st1{fill:#F8F8F8;}
	.st2{fill:#001E2C;}
	.st3{fill:#62A20B;}
	.st4{fill:#4F8812;}
	.st5{fill:#3B6D17;}
	.st6{fill:#143924;}
	.st7{fill:#28531E;}
	.st8{fill:#DBEEBA;}
	.st9{fill:#C9E895;}
	.st10{fill:#B8E170;}
	.st11{fill:#95D525;}
	.st12{fill:#A6DB4A;}
	.st13{fill:#80B237;}
	.st14{fill:#6A982F;}
	.st15{fill:#557E2A;}
	.st16{fill:#416526;}
	.st17{fill:#2B4A26;}
</style>
<rect x="-20" y="-20" class="st2" width="1040" height="525"/>
<g>
	<g>
		<g>
			<path class="st1" d="M473.5,252.3h43.6v8h-34.9v23.8h34.3v8h-34.3v24h35.6v8h-44.2V252.3z"/>
			<path class="st1" d="M572.3,320.5h1.2v-68.2h8.6v71.9h-17.3L544.1,256h-1.2v68.2h-8.6v-71.9h17.3L572.3,320.5z"/>
			<path class="st1" d="M599.3,252.3h43.6v8h-34.9v23.8h34.3v8h-34.3v24h35.6v8h-44.2V252.3z"/>
			<path class="st1" d="M706.5,324.2h-8.6v-24c0-1.8-0.4-3.1-1.2-4.1c-0.8-1-2.3-1.4-4.3-1.4h-22.4v29.6h-8.6v-71.9H687
				c3.7,0,6.9,0.5,9.7,1.6c2.7,1.1,5,2.5,6.8,4.3c1.8,1.8,3.2,3.9,4.1,6.2c0.9,2.4,1.4,4.8,1.4,7.4v3.1c0,2.7-0.7,5.3-2.2,8
				c-1.5,2.7-3.8,4.7-6.8,6.2v1.2c2.1,0.3,3.7,1.2,4.8,2.5c1.2,1.3,1.7,3.2,1.7,5.5V324.2z M669.9,286.6h16c4.9,0,8.5-1,10.8-3.1
				c2.4-2.1,3.5-5.2,3.5-9.2v-1.9c0-3.6-1.2-6.6-3.5-8.8c-2.4-2.2-6-3.3-10.8-3.3h-16V286.6z"/>
			<path class="st1" d="M740,289.7H772v34.5h-8v-8.6h-1.2c-1.2,3-3.2,5.4-6.2,7.3c-2.9,1.8-6.4,2.8-10.3,2.8
				c-7.7,0-13.8-2.5-18.2-7.5c-4.4-5-6.6-12.3-6.6-21.9v-16c0-9.3,2.2-16.5,6.7-21.7c4.5-5.1,10.7-7.7,18.6-7.7
				c4.1,0,7.7,0.7,10.9,2c3.2,1.3,5.8,3.2,7.9,5.5s3.7,5.1,4.8,8.3c1.1,3.2,1.6,6.6,1.6,10.2v1.2h-8.6v-1.2c0-2.3-0.3-4.6-1-6.8
				c-0.7-2.2-1.6-4.1-3-5.8c-1.3-1.7-3-3-5.1-4c-2.1-1-4.6-1.5-7.6-1.5c-5.5,0-9.7,2-12.5,6.1c-2.8,4-4.2,9.4-4.2,15.9v14.8
				c0,7.1,1.4,12.5,4.2,16.3c2.8,3.8,7,5.7,12.7,5.7c5.1,0,9.2-1.6,12.1-4.9c2.9-3.3,4.4-7.9,4.4-13.8v-1.2H740V289.7z"/>
			<path class="st1" d="M805.4,298.9h-1.9l-22.5-46.6h9.7l18.4,39.3h1.2l18.4-39.3h9.7l-22.5,46.6h-1.9v25.3h-8.6V298.9z"/>
		</g>
		<path class="st1" d="M525.3,161.5v47.1c0,8.2-2.2,14.7-6.5,19.3c-4.4,4.7-10.8,7-19.4,7c-8.6,0-15-2.3-19.4-7
			c-4.4-4.7-6.5-11.1-6.5-19.3v-47.1h13.6v47.1c0,4.2,1,7.6,3,10c2,2.4,5.1,3.6,9.4,3.6c4.2,0,7.4-1.2,9.4-3.6c2-2.4,3-5.7,3-10
			v-47.1H525.3z"/>
		<path class="st1" d="M586.7,233.4h-13.6v-21.6c0-1.6-0.4-3-1.3-4c-0.9-1-2.3-1.5-4.3-1.5h-15.6v27.1h-13.6v-71.9h27.5
			c3.7,0,7,0.5,9.8,1.5c2.8,1,5.2,2.4,7,4.3s3.3,3.9,4.3,6.3c1,2.4,1.5,5,1.5,7.7v2.5c0,2.9-0.8,5.7-2.4,8.3c-1.6,2.6-4,4.5-7.3,5.9
			v1.8c2.4,0.3,4.3,1.2,5.7,2.8c1.4,1.6,2.1,3.6,2.1,6V233.4z M551.9,193.3h12.9c3.3,0,5.8-0.8,7.5-2.3c1.7-1.5,2.6-3.7,2.6-6.5
			v-1.2c0-2.4-0.9-4.5-2.6-6.2c-1.7-1.7-4.2-2.6-7.5-2.6h-12.9V193.3z"/>
		<path class="st1" d="M598.5,220.5h6.8v-46h-6.8v-12.9H630c3.4,0,6.5,0.5,9.1,1.4c2.6,1,4.9,2.3,6.7,3.9c1.8,1.6,3.2,3.6,4.1,5.9
			s1.4,4.8,1.4,7.4v1.2c0,4.1-1.1,7.4-3.4,9.9c-2.3,2.5-5.2,4.2-8.7,5.1v1.8c3.5,1,6.4,2.7,8.7,5.2c2.3,2.5,3.4,5.8,3.4,9.9v1.2
			c0,2.7-0.5,5.2-1.4,7.4s-2.3,4.3-4.1,6c-1.8,1.7-4,3-6.7,4c-2.6,1-5.7,1.4-9.1,1.4h-31.5V220.5z M618.8,190.9h9.9
			c2.9,0,5.2-0.6,7-1.8s2.7-3.2,2.7-6.1v-0.6c0-2.9-0.9-4.9-2.7-6.1s-4.1-1.8-7-1.8h-9.9V190.9z M618.8,220.5h9.9
			c2.9,0,5.2-0.6,7-1.9c1.8-1.2,2.7-3.3,2.7-6.2v-0.6c0-2.9-0.9-4.9-2.7-6.2c-1.8-1.2-4.1-1.9-7-1.9h-9.9V220.5z"/>
		<path class="st1" d="M700.3,218h-24.5l-3.5,15.4h-14.2l17.2-71.9h25.5l17.2,71.9h-14.2L700.3,218z M678.7,205h18.6l-8.3-36.8h-1.9
			L678.7,205z"/>
		<path class="st1" d="M760.7,226.6h1.9v-65.1h13.6v71.9h-26.5l-8.4-65.1h-1.9v65.1h-13.6v-71.9h26.5L760.7,226.6z"/>
	</g>
	<g>
		<path class="st0" d="M300.6,230.5l26.6-26.6c10.5-10.6,24.5-16.4,39.5-16.4c30.7,0,55.7,25,55.7,55.7c0,5.3-0.8,10.4-2.2,15.3
			l23.5,9.7c2.6-7.9,4-16.3,4-25.1c0-44.7-36.4-81-81-81c-21.7,0-42.1,8.5-57.4,23.8l-69.9,69.9l69.7,0L282,283
			c-10.5,10.2-24.3,15.8-38.9,15.8c-30.7,0-55.7-25-55.7-55.7c0-5.3,0.8-10.4,2.2-15.3l-23.5-9.7c-2.6,7.9-4,16.3-4,25.1
			c0,44.7,36.4,81,81,81c21.3,0,41.4-8.2,56.7-23.2l70.5-70.5L300.6,230.5z"/>
		<path class="st17" d="M295.7,181.6c-4.9-4.2-10.2-7.8-15.9-10.6l-9.7,23.5c2.7,1.5,5.2,3.2,7.6,5.1L295.7,181.6z"/>
		<path class="st16" d="M268.2,166.1c-6-2-12.3-3.2-18.7-3.7v25.4c3.1,0.3,6.1,0.9,9,1.8L268.2,166.1z"/>
		<path class="st15" d="M236.7,162.4c-6.5,0.5-12.8,1.8-18.7,3.7l9.7,23.5c2.9-0.8,5.9-1.4,9-1.8V162.4z"/>
		<path class="st13" d="M181.5,190.6c-4.1,4.8-7.7,10.1-10.6,15.8l23.5,9.7c1.5-2.7,3.2-5.2,5.1-7.6L181.5,190.6z"/>
		<path class="st14" d="M206.3,171c-5.7,2.9-11,6.5-15.8,10.6l18,18c2.4-1.9,4.9-3.6,7.6-5.1L206.3,171z"/>
		<path class="st13" d="M415.4,270.2c-1.5,2.7-3.2,5.2-5.1,7.6l18,18c4.1-4.8,7.7-10.1,10.6-15.8L415.4,270.2z"/>
		<path class="st14" d="M401.3,286.8c-2.4,1.9-4.9,3.6-7.6,5.1l9.7,23.5c5.7-2.9,11-6.5,15.8-10.6L401.3,286.8z"/>
		<path class="st17" d="M339.6,291.9c-2.7-1.5-5.2-3.2-7.6-5.1l-18,18c4.9,4.2,10.2,7.8,15.9,10.6L339.6,291.9z"/>
		<path class="st16" d="M360.3,298.5c-3.1-0.3-6.1-0.9-9-1.8l-9.8,23.5c6,1.9,12.3,3.2,18.7,3.7V298.5z"/>
		<path class="st15" d="M382,296.8c-2.9,0.8-5.9,1.4-9,1.8V324c6.5-0.5,12.8-1.8,18.7-3.7L382,296.8z"/>
	</g>
</g>
</svg>
