<?xml version="1.0" encoding="utf-8"?>
<!-- Generator: Adobe Illustrator 26.1.0, SVG Export Plug-In . SVG Version: 6.00 Build 0)  -->
<svg version="1.1" id="Layer_1" xmlns="http://www.w3.org/2000/svg" xmlns:xlink="http://www.w3.org/1999/xlink" x="0px" y="0px"
	 viewBox="0 0 485 485" style="enable-background:new 0 0 485 485;" xml:space="preserve">
<style type="text/css">
	.st0{fill:#83CF00;}
	.st1{fill:#F8F8F8;}
	.st2{fill:#001E2C;}
	.st3{fill:#62A20B;}
	.st4{fill:#4F8812;}
	.st5{fill:#3B6D17;}
	.st6{fill:#143924;}
	.st7{fill:#28531E;}
	.st8{fill:#DBEEBA;}
	.st9{fill:#C9E895;}
	.st10{fill:#B8E170;}
	.st11{fill:#95D525;}
	.st12{fill:#A6DB4A;}
	.st13{fill:#80B237;}
	.st14{fill:#6A982F;}
	.st15{fill:#557E2A;}
	.st16{fill:#416526;}
	.st17{fill:#2B4A26;}
</style>
<rect x="-20" y="-20" class="st2" width="525" height="525"/>
<g>
	<g>
		<path class="st0" d="M241.5,229.8l26.6-26.6c10.5-10.6,24.5-16.4,39.5-16.4c30.7,0,55.7,25,55.7,55.7c0,5.3-0.8,10.4-2.2,15.3
			l23.5,9.7c2.6-7.9,4-16.3,4-25.1c0-44.7-36.4-81-81-81c-21.7,0-42.1,8.5-57.4,23.8l-69.9,69.9l69.7,0l-27.1,27.2
			c-10.5,10.2-24.3,15.8-38.9,15.8c-30.7,0-55.7-25-55.7-55.7c0-5.3,0.8-10.4,2.2-15.3l-23.5-9.7c-2.6,7.9-4,16.3-4,25.1
			c0,44.7,36.4,81,81,81c21.3,0,41.4-8.2,56.7-23.2l70.5-70.5L241.5,229.8z"/>
		<path class="st17" d="M236.6,180.9c-4.9-4.2-10.2-7.8-15.9-10.6l-9.7,23.5c2.7,1.5,5.2,3.2,7.6,5.1L236.6,180.9z"/>
		<path class="st16" d="M209,165.4c-6-2-12.3-3.2-18.7-3.7v25.4c3.1,0.3,6.1,0.9,9,1.8L209,165.4z"/>
		<path class="st15" d="M177.6,161.7c-6.5,0.5-12.8,1.8-18.7,3.7l9.7,23.5c2.9-0.8,5.9-1.4,9-1.8V161.7z"/>
		<path class="st13" d="M122.4,189.9c-4.1,4.8-7.7,10.1-10.6,15.8l23.5,9.7c1.5-2.7,3.2-5.2,5.1-7.6L122.4,189.9z"/>
		<path class="st14" d="M147.2,170.3c-5.7,2.9-11,6.5-15.8,10.6l18,18c2.4-1.9,4.9-3.6,7.6-5.1L147.2,170.3z"/>
		<path class="st13" d="M356.2,269.5c-1.5,2.7-3.2,5.2-5.1,7.6l18,18c4.1-4.8,7.7-10.1,10.6-15.8L356.2,269.5z"/>
		<path class="st14" d="M342.2,286.1c-2.4,1.9-4.9,3.6-7.6,5.1l9.7,23.5c5.7-2.9,11-6.5,15.8-10.6L342.2,286.1z"/>
		<path class="st17" d="M280.5,291.2c-2.7-1.5-5.2-3.2-7.6-5.1l-18,18c4.9,4.2,10.2,7.8,15.9,10.6L280.5,291.2z"/>
		<path class="st16" d="M301.2,297.8c-3.1-0.3-6.1-0.9-9-1.8l-9.8,23.5c6,1.9,12.3,3.2,18.7,3.7V297.8z"/>
		<path class="st15" d="M322.9,296.1c-2.9,0.8-5.9,1.4-9,1.8v25.4c6.5-0.5,12.8-1.8,18.7-3.7L322.9,296.1z"/>
	</g>
</g>
</svg>
